# xmcd
#
# Track frame offsets:
#	150
#	15910
#	41325
#	63065
#	79865
#	102200
#	120075
#	133723
#	151650
#	170180
#	202520
#	220218
#	236528
#	254850
#	270735
#
# Disc length: 3842
#
# Revision: 3
# Processed by: cddbd v1.5.1PL0 Copyright (c) Steve Scherf et al.
# Submitted via: ExactAudioCopy v0.90b4
# Normalized: r2:DSETVAR1
#
DISCID=ba0f000f
DTITLE=Various Artist - Brown Sugar
DYEAR=2002
DGENRE=Soundtrack
TTITLE0=Mos Def featuring Faith Evans - Brown Sugar
TTITLE1=Erykah Badu featuring Common - Love Of My Life
TTITLE2=Angie Stone - Bring Your Heart
TTITLE3=Black Star - Brown Sugar (Raw)
TTITLE4=Jill Scott - Easy Conversation
TTITLE5=Blackalicious featuring Lateef - It's Going Down
TTITLE6=Mos Def - Breakdown
TTITLE7=Rahsaan Patterson - You Make Life So Good
TTITLE8=Cassandra Wilson - Time After Time
TTITLE9=Eric B And Rakim - Paid In Full (7 minutes of madness-the coldcut remix)
TTITLE10=Hi-Tek featuring Big D and Piakhan - No One Knows Her Name
TTITLE11=The Roots - Act Too (Love Of My Life) (remix)
TTITLE12=Mary J. Blige - Never Been
TTITLE13=Mos Def - Brown Sugar (Fine)
TTITLE14=Jully Black - You Changed
EXTD=
EXTT0=
EXTT1=
EXTT2=
EXTT3=
EXTT4=
EXTT5=
EXTT6=
EXTT7=
EXTT8=
EXTT9=
EXTT10=
EXTT11=
EXTT12=
EXTT13=
EXTT14=
PLAYORDER=
